# xmcd
#
# Track frame offsets: 
#        150
#        11738
#        21875
#        35247
#        47754
#        60396
#        72788
#        86858
#        100529
#        115467
#        130590
#        145893
#        161138
#        173897
#        187308
#        201751
#        215920
#        231476
#        245962
#        259380
#
# Disc length: 3642 seconds
#
# Revision: 2
# Processed by: cddbd v1.5.2PL0 Copyright (c) Steve Scherf et al.
# Submitted via: ExactAudioCopy v1.3
#
DISCID=3a0e3814
DTITLE=Benny Goodman - Goodman - And The Angels Sing (The King of Swin
DTITLE=g)
DYEAR=2001
DGENRE=Jazz
TTITLE0=My honey´s lovin´arms (NY 23.11.38)
TTITLE1=Farwell blues (NY 23.11.38)
TTITLE2=It had to be you (NY 12.12.38)
TTITLE3=Louise (NY 12.12.38)
TTITLE4=Whispering (Chicago 15.12.38)
TTITLE5=Bach goes to town (Chicago 15.12.38)
TTITLE6=I´ll always be in love with you (Chicago 15.12.38)
TTITLE7=Undecided (Chicago 15.12.38)
TTITLE8=We´ll never know (Chicago 23.12.38)
TTITLE9=Good for nothin´ but love (Chicago 23.12.38)
TTITLE10=Blue Lou (NY 11.&12.1.39)
TTITLE11=The blues (NY 11.&12.1.39)
TTITLE12=Shut-eye (NY 1.2.39)
TTITLE13=Cuckoo in the clock (NY 1.2.39)
TTITLE14=And the angles sing (NY 1.2.39)
TTITLE15=Sent for you yesterday (NY 1.2.39)
TTITLE16=Estrellita (NY 9.2.39)
TTITLE17=A home in the clouds (NY 9.2.39)
TTITLE18=Show Your line, Miss Richerdson (NY 7.4.39)
TTITLE19=The lady´s in love with you (NY 7.4.39)
EXTD=
EXTT0=
EXTT1=
EXTT2=
EXTT3=
EXTT4=
EXTT5=
EXTT6=
EXTT7=
EXTT8=
EXTT9=
EXTT10=
EXTT11=
EXTT12=
EXTT13=
EXTT14=
EXTT15=
EXTT16=
EXTT17=
EXTT18=
EXTT19=
PLAYORDER=
